<mxfile host="app.diagrams.net" agent="Mozilla/5.0 (Windows NT 10.0; Win64; x64) AppleWebKit/537.36 (KHTML, like Gecko) Chrome/134.0.0.0 Safari/537.36" version="26.1.1">
  <diagram name="Página-1" id="VAkRevvwhK3ELiaLSgaE">
    <mxGraphModel dx="1434" dy="1907" grid="1" gridSize="10" guides="1" tooltips="1" connect="1" arrows="1" fold="1" page="1" pageScale="1" pageWidth="827" pageHeight="1169" math="0" shadow="0">
      <root>
        <mxCell id="0" />
        <mxCell id="1" parent="0" />
        <mxCell id="ss_T5aYVe5_uPS8-H1rj-35" style="rounded=0;orthogonalLoop=1;jettySize=auto;html=1;entryX=0;entryY=0.5;entryDx=0;entryDy=0;endArrow=classic;endFill=1;startFill=0;" parent="1" source="ss_T5aYVe5_uPS8-H1rj-1" target="ss_T5aYVe5_uPS8-H1rj-5" edge="1">
          <mxGeometry relative="1" as="geometry" />
        </mxCell>
        <mxCell id="ss_T5aYVe5_uPS8-H1rj-39" style="rounded=0;orthogonalLoop=1;jettySize=auto;html=1;entryX=0;entryY=0.5;entryDx=0;entryDy=0;" parent="1" source="ss_T5aYVe5_uPS8-H1rj-1" target="ss_T5aYVe5_uPS8-H1rj-7" edge="1">
          <mxGeometry relative="1" as="geometry" />
        </mxCell>
        <mxCell id="ss_T5aYVe5_uPS8-H1rj-1" value="Paciente" style="shape=umlActor;verticalLabelPosition=bottom;verticalAlign=top;html=1;outlineConnect=0;" parent="1" vertex="1">
          <mxGeometry x="310" y="-250" width="30" height="60" as="geometry" />
        </mxCell>
        <mxCell id="ss_T5aYVe5_uPS8-H1rj-48" style="rounded=0;orthogonalLoop=1;jettySize=auto;html=1;entryX=0;entryY=0.5;entryDx=0;entryDy=0;" parent="1" source="ss_T5aYVe5_uPS8-H1rj-2" target="ss_T5aYVe5_uPS8-H1rj-5" edge="1">
          <mxGeometry relative="1" as="geometry" />
        </mxCell>
        <mxCell id="ss_T5aYVe5_uPS8-H1rj-49" style="rounded=0;orthogonalLoop=1;jettySize=auto;html=1;entryX=0;entryY=0.5;entryDx=0;entryDy=0;" parent="1" source="ss_T5aYVe5_uPS8-H1rj-2" target="ss_T5aYVe5_uPS8-H1rj-7" edge="1">
          <mxGeometry relative="1" as="geometry" />
        </mxCell>
        <mxCell id="ss_T5aYVe5_uPS8-H1rj-2" value="Profissional" style="shape=umlActor;verticalLabelPosition=bottom;verticalAlign=top;html=1;outlineConnect=0;" parent="1" vertex="1">
          <mxGeometry x="310" y="-350" width="30" height="60" as="geometry" />
        </mxCell>
        <mxCell id="ss_T5aYVe5_uPS8-H1rj-23" style="rounded=0;orthogonalLoop=1;jettySize=auto;html=1;entryX=0;entryY=0.5;entryDx=0;entryDy=0;endArrow=none;startFill=0;" parent="1" source="ss_T5aYVe5_uPS8-H1rj-3" target="ss_T5aYVe5_uPS8-H1rj-22" edge="1">
          <mxGeometry relative="1" as="geometry" />
        </mxCell>
        <mxCell id="ss_T5aYVe5_uPS8-H1rj-3" value="Administrador" style="shape=umlActor;verticalLabelPosition=bottom;verticalAlign=top;html=1;outlineConnect=0;" parent="1" vertex="1">
          <mxGeometry x="405" y="540" width="30" height="60" as="geometry" />
        </mxCell>
        <mxCell id="ss_T5aYVe5_uPS8-H1rj-5" value="Gerenciar Cadastro no sistema" style="ellipse;whiteSpace=wrap;html=1;" parent="1" vertex="1">
          <mxGeometry x="500" y="-340" width="120" height="50" as="geometry" />
        </mxCell>
        <mxCell id="ss_T5aYVe5_uPS8-H1rj-7" value="Realizar Login" style="ellipse;whiteSpace=wrap;html=1;" parent="1" vertex="1">
          <mxGeometry x="500" y="-260" width="120" height="50" as="geometry" />
        </mxCell>
        <mxCell id="ss_T5aYVe5_uPS8-H1rj-44" style="rounded=0;orthogonalLoop=1;jettySize=auto;html=1;entryX=1;entryY=0.5;entryDx=0;entryDy=0;dashed=1;endArrow=open;endFill=0;" parent="1" source="ss_T5aYVe5_uPS8-H1rj-8" target="ss_T5aYVe5_uPS8-H1rj-7" edge="1">
          <mxGeometry relative="1" as="geometry" />
        </mxCell>
        <mxCell id="ss_T5aYVe5_uPS8-H1rj-8" value="Gerenciar Perfil" style="ellipse;whiteSpace=wrap;html=1;" parent="1" vertex="1">
          <mxGeometry x="710" y="-260" width="120" height="50" as="geometry" />
        </mxCell>
        <mxCell id="ss_T5aYVe5_uPS8-H1rj-22" value="Gerenciar Usuários" style="ellipse;whiteSpace=wrap;html=1;" parent="1" vertex="1">
          <mxGeometry x="490" y="520" width="120" height="50" as="geometry" />
        </mxCell>
        <mxCell id="ss_T5aYVe5_uPS8-H1rj-45" value="Extends&lt;div&gt;&lt;br&gt;&lt;/div&gt;" style="text;html=1;align=center;verticalAlign=middle;resizable=0;points=[];autosize=1;strokeColor=none;fillColor=none;rotation=-10;" parent="1" vertex="1">
          <mxGeometry x="640" y="-270" width="70" height="40" as="geometry" />
        </mxCell>
        <mxCell id="1Cvz7WU102pqnaZ80RXv-4" style="rounded=0;orthogonalLoop=1;jettySize=auto;html=1;entryX=0.5;entryY=0;entryDx=0;entryDy=0;dashed=1;endArrow=open;endFill=0;" edge="1" parent="1" source="1Cvz7WU102pqnaZ80RXv-1" target="ss_T5aYVe5_uPS8-H1rj-8">
          <mxGeometry relative="1" as="geometry" />
        </mxCell>
        <mxCell id="1Cvz7WU102pqnaZ80RXv-1" value="Editar informações pessoais" style="ellipse;whiteSpace=wrap;html=1;" vertex="1" parent="1">
          <mxGeometry x="660" y="-345" width="120" height="50" as="geometry" />
        </mxCell>
        <mxCell id="1Cvz7WU102pqnaZ80RXv-5" value="Extends&lt;div&gt;&lt;br&gt;&lt;/div&gt;" style="text;html=1;align=center;verticalAlign=middle;resizable=0;points=[];autosize=1;strokeColor=none;fillColor=none;rotation=-10;" vertex="1" parent="1">
          <mxGeometry x="750" y="-300" width="70" height="40" as="geometry" />
        </mxCell>
        <mxCell id="1Cvz7WU102pqnaZ80RXv-8" style="rounded=0;orthogonalLoop=1;jettySize=auto;html=1;entryX=0;entryY=0.5;entryDx=0;entryDy=0;" edge="1" parent="1" source="1Cvz7WU102pqnaZ80RXv-6" target="1Cvz7WU102pqnaZ80RXv-7">
          <mxGeometry relative="1" as="geometry" />
        </mxCell>
        <mxCell id="1Cvz7WU102pqnaZ80RXv-6" value="Administrador" style="shape=umlActor;verticalLabelPosition=bottom;verticalAlign=top;html=1;outlineConnect=0;" vertex="1" parent="1">
          <mxGeometry x="310" y="-500" width="30" height="60" as="geometry" />
        </mxCell>
        <mxCell id="1Cvz7WU102pqnaZ80RXv-7" value="Gerenciar Usuários no sistema" style="ellipse;whiteSpace=wrap;html=1;" vertex="1" parent="1">
          <mxGeometry x="460" y="-570" width="120" height="50" as="geometry" />
        </mxCell>
      </root>
    </mxGraphModel>
  </diagram>
</mxfile>
